HIERARCHY
ROOT Hips
{
  OFFSET -213.699 104.721 0.752556
  CHANNELS 6 Xposition Yposition Zposition Zrotation Xrotation Yrotation
  JOINT RightUpLeg
  {
    OFFSET -8.9458 -8.66707 0.101652
    CHANNELS 3 Zrotation Xrotation Yrotation
    JOINT RightLeg
    {
      OFFSET 0 -44.4227 1.3727
      CHANNELS 3 Zrotation Xrotation Yrotation
      JOINT RightFoot
      {
        OFFSET 0.253549 -42.0924 -1.46059
        CHANNELS 3 Zrotation Xrotation Yrotation
        JOINT RightToes
        {
          OFFSET 0.04 -4.41509 8.4991
          CHANNELS 3 Zrotation Xrotation Yrotation
          End Site
          {
            OFFSET -0.08 -0.137448 9.77979
          }
        }
      }
    }
  }
  JOINT Spine
  {
    OFFSET 0 11.8905 0
    CHANNELS 3 Zrotation Xrotation Yrotation
    JOINT Spine1
    {
      OFFSET 0 25.6574 0.127663
      CHANNELS 3 Zrotation Xrotation Yrotation
      JOINT HEad
      {
        OFFSET 0 8.73416 0.011341
        CHANNELS 3 Zrotation Xrotation Yrotation
        End Site
        {
          OFFSET -0.29 12.7742 2.51395
        }
      }
      JOINT LeftShoulder1
      {
        OFFSET 8.99 -0.362252 -0.22
        CHANNELS 3 Zrotation Xrotation Yrotation
        JOINT LeftArm
        {
          OFFSET 10.2827 -0.00337999 0.322123
          CHANNELS 3 Zrotation Xrotation Yrotation
          JOINT LeftForeArm
          {
            OFFSET 26.2597 0.099144 -1.42434
            CHANNELS 3 Zrotation Xrotation Yrotation
            JOINT LeftHand
            {
              OFFSET 22.0902 0.085362 1.02216
              CHANNELS 3 Zrotation Xrotation Yrotation
              End Site
              {
                OFFSET 13.419 -0.6 1.50291
              }
            }
          }
        }
      }
      JOINT RightShoulder
      {
        OFFSET -8.99 -0.362252 -0.22
        CHANNELS 3 Zrotation Xrotation Yrotation
        JOINT RightArm
        {
          OFFSET -10.2827 -0.00338 0.322123
          CHANNELS 3 Zrotation Xrotation Yrotation
          JOINT RightForeArm
          {
            OFFSET -26.364 0.099144 -1.42434
            CHANNELS 3 Zrotation Xrotation Yrotation
            JOINT RightHand
            {
              OFFSET -22.0324 0.085362 1.02216
              CHANNELS 3 Zrotation Xrotation Yrotation
              End Site
              {
                OFFSET -13.3284 -0.6 1.50291
              }
            }
          }
        }
      }
    }
  }
  JOINT LeftUpLeg
  {
    OFFSET 8.9458 -8.66707 0.101652
    CHANNELS 3 Zrotation Xrotation Yrotation
    JOINT LeftLeg
    {
      OFFSET 0 -44.4227 1.3727
      CHANNELS 3 Zrotation Xrotation Yrotation
      JOINT LeftFoot
      {
        OFFSET -0.253549 -42.0924 -1.46059
        CHANNELS 3 Zrotation Xrotation Yrotation
        JOINT LeftToes
        {
          OFFSET -0.04 -4.41509 8.4991
          CHANNELS 3 Zrotation Xrotation Yrotation
          End Site
          {
            OFFSET 0.08 -0.047448 9.77979
          }
        }
      }
    }
  }
}
MOTION
Frames:	10
Frame Time:	0.0333333
-226.119 104.664 90.172 0.894252 0.222367 89.7389 1.83106 2.65194 -0.681017 -1.07745 8.38114 -13.0674 -2.88021 -4.94807 -0.0886936 0.0462048 0.000530889 0.662642 -4.20977 -4.01233 -1.5635 2.0904 10.6329 -1.93754 -8.88957 16.959 -29.3983 -30.7324 -4.01402 14.388 -65.9879 -54.499 -43.0079 -157.547 81.7043 160.815 7.67601 8.99301 -9.94129 28.0728 -0.996673 -7.05421 46.9296 -18.4262 18.5774 10.8146 -5.56638 2.89589 -28.5929 2.20582 25.2794 -2.63361 -0.388638 0.478541 1.62777 10.0039 11.9628 6.32501 -6.29049 -0.0590605 -1.32313e-009 8.75226e-006 -1.46812e-008 
-226.132 104.664 90.1739 0.904951 0.226806 89.7564 1.82547 2.66013 -0.695945 -1.06679 8.37163 -13.0647 -2.91761 -4.94191 -0.0886928 0.0462048 0.000530889 0.662642 -4.14624 -4.06444 -1.53947 2.0341 10.7442 -1.90072 -8.80511 16.9193 -29.465 -30.7347 -4.00539 14.3641 -66.2383 -54.4799 -43.0732 -158.226 81.5204 161.576 7.53887 9.01424 -9.88881 28.1592 -1.03154 -7.14709 46.8824 -18.4271 18.7159 10.8579 -5.08162 2.8759 -28.5199 2.40419 24.6067 -2.64792 -0.380745 0.457561 1.64612 9.98967 11.9929 6.33343 -6.2708 -0.0590582 -1.32313e-009 8.75226e-006 -1.46812e-008 
-226.147 104.664 90.1818 0.938562 0.251894 89.8154 1.79554 2.6798 -0.736781 -1.05084 8.39924 -13.0508 -2.91508 -4.9526 -0.0886942 0.0462048 0.000530889 0.662642 -4.07095 -4.16464 -1.50329 1.93735 10.9908 -1.83933 -8.56391 16.8125 -29.6123 -30.7136 -3.98648 14.3192 -66.5089 -54.3433 -42.9726 -158.848 81.2948 162.219 7.30356 9.05606 -9.69892 28.3386 -1.09362 -7.30867 46.7907 -18.4341 18.9769 10.9243 -4.40927 2.83695 -28.0266 2.87298 23.3301 -2.68804 -0.342877 0.413478 1.67481 9.95535 12.0133 6.37163 -6.23744 -0.0590544 -1.32313e-009 8.75226e-006 -1.46812e-008 
-226.154 104.664 90.1934 0.995256 0.292828 89.8979 1.75079 2.74469 -0.79058 -1.03613 8.39993 -13.0666 -2.88871 -4.97556 -0.0886973 0.0462048 0.000530889 0.662642 -4.05791 -4.20393 -1.4857 1.85924 11.1928 -1.80087 -8.32184 16.6957 -29.7344 -30.6893 -3.97874 14.3053 -66.7046 -54.1192 -42.7248 -158.934 81.2037 162.231 7.35268 9.05898 -9.53134 28.5343 -1.1447 -7.43515 46.6907 -18.4581 19.2046 10.9717 -3.98066 2.81003 -27.1277 3.46948 21.9023 -2.74109 -0.275575 0.368466 1.69996 9.92187 11.9793 6.40699 -6.21111 -0.0595722 -1.32313e-009 8.75226e-006 -1.46812e-008 
-226.166 104.664 90.2071 1.0363 0.339451 89.9628 1.71055 2.80389 -0.836676 -1.022 8.35625 -13.1205 -2.91906 -4.98929 -0.0886992 0.0462048 0.000530889 0.662642 -4.10958 -4.13321 -1.47259 1.87064 11.1664 -1.7905 -8.29082 16.6846 -29.7856 -30.7594 -3.99872 14.3389 -67.0059 -53.9268 -42.505 -159.177 81.0848 162.448 7.6512 9.01892 -9.55335 28.6463 -1.14321 -7.41846 46.581 -18.5358 19.2299 11.0107 -3.55516 2.86162 -26.0862 4.12882 20.2287 -2.79698 -0.23307 0.319615 1.72865 9.90111 11.9429 6.41431 -6.1904 -0.0614521 -1.32313e-009 8.75226e-006 -1.46812e-008 
-226.188 104.664 90.2254 1.0333 0.377851 90.0197 1.68468 2.78971 -0.86769 -1.00606 8.34887 -13.1796 -2.97693 -4.99155 -0.0886995 0.0462048 0.000530889 0.662642 -4.19527 -4.01575 -1.44137 2.0103 10.9141 -1.79081 -8.48407 16.8437 -29.832 -30.9871 -4.03639 14.3742 -67.3802 -53.7805 -42.2788 -160.094 80.7184 163.405 7.67015 9.00784 -9.70269 28.6555 -1.07592 -7.22392 46.4125 -18.7074 18.9516 11.0859 -2.7255 3.08053 -24.88 4.88632 18.099 -2.84284 -0.241774 0.258209 1.76617 9.87407 11.933 6.38485 -6.15879 -0.0633401 -1.32313e-009 8.75226e-006 -1.46812e-008 
-226.201 104.664 90.2474 1.01992 0.401583 90.1278 1.66851 2.75438 -0.900155 -0.981511 8.39803 -13.2321 -2.9763 -4.994 -0.0886998 0.0462048 0.000530889 0.662642 -4.25862 -3.94201 -1.42175 2.17039 10.6451 -1.80302 -8.70931 17.0845 -29.9084 -31.2858 -4.07175 14.3823 -67.6266 -53.5689 -41.9127 -161.08 80.2209 164.358 7.45016 9.02982 -9.8226 28.6885 -0.997765 -6.99609 46.1888 -18.9496 18.5387 11.1974 -1.51399 3.45035 -23.2734 5.72205 15.7025 -2.8643 -0.249457 0.201383 1.80059 9.82626 11.887 6.3299 -6.1153 -0.0649535 -1.32313e-009 8.75226e-006 -1.46812e-008 
-226.198 104.664 90.2608 1.04155 0.419042 90.2686 1.63605 2.7818 -0.959672 -0.943484 8.43368 -13.2669 -2.94254 -5.00702 -0.0887016 0.0462048 0.000530889 0.662642 -4.24564 -3.92877 -1.45268 2.17639 10.541 -1.82958 -8.83665 17.2465 -29.9362 -31.5092 -4.10641 14.4099 -67.859 -53.2595 -41.5217 -161.438 79.9458 164.6 7.81738 8.97735 -9.88715 28.8497 -0.988902 -6.95479 46.0377 -19.1859 18.335 11.3075 -0.0886653 3.86205 -21.3638 6.52335 13.3475 -2.88193 -0.208785 0.161551 1.82144 9.77612 11.7988 6.29421 -6.07828 -0.066038 -1.32313e-009 8.75226e-006 -1.46812e-008 
-226.201 104.664 90.2563 1.08769 0.466409 90.3327 1.56051 2.82923 -1.04904 -0.904082 8.45263 -13.2343 -2.96448 -5.04069 -0.0887062 0.0462048 0.000530889 0.662642 -4.18959 -3.92347 -1.50001 2.04924 10.5603 -1.84491 -8.93719 17.2756 -29.8672 -31.6395 -4.15767 14.5075 -68.4862 -52.9746 -41.3813 -161.364 79.9863 164.529 8.88356 8.83073 -9.95716 29.0626 -1.06339 -7.14609 46.0445 -19.3514 18.4194 11.4203 1.7662 4.32646 -19.4953 7.23848 10.9348 -2.94247 -0.145866 0.115666 1.83568 9.73997 11.7836 6.31582 -6.0539 -0.0668045 -1.32313e-009 8.75226e-006 -1.46812e-008 
-226.22 104.664 90.2466 1.1261 0.534102 90.2976 1.46726 2.81769 -1.13197 -0.886688 8.52742 -13.1345 -3.01443 -5.09068 -0.088713 0.0462048 0.000530889 0.662642 -4.20172 -3.88574 -1.50522 2.00641 10.5556 -1.83803 -9.0876 17.2578 -29.781 -31.769 -4.22216 14.6393 -69.5803 -52.7845 -41.4889 -161.524 80.0693 164.898 9.46856 8.74651 -10.0401 29.2085 -1.15483 -7.39032 46.061 -19.3538 18.4582 11.5482 4.24361 5.03841 -17.6525 7.90413 8.24002 -3.03531 -0.0957151 0.0557381 1.84902 9.70502 11.8683 6.3679 -6.02835 -0.0673886 -1.32313e-009 8.75226e-006 -1.46812e-008 
